<svg xmlns="http://www.w3.org/2000/svg" width="160.17" height="160.171" viewBox="0 0 160.17 160.171" fill="#abb7ce"><path d="M143.163 0h-126.155c-8.694 0-15.769 7.075-15.769 15.769v128.632c0 8.692 7.076 15.77 15.77 15.77h126.154c8.692 0 15.77-7.077 15.77-15.77v-128.632c-.001-8.694-7.078-15.769-15.77-15.769zm5.256 144.401c0 2.898-2.358 5.257-5.257 5.257h-126.154c-2.898 0-5.256-2.358-5.256-5.257v-128.632c0-2.898 2.358-5.256 5.256-5.256h126.154c2.898 0 5.257 2.358 5.257 5.256v128.632zM80.085 22.778c-31.602 0-57.309 25.708-57.309 57.309 0 31.603 25.707 57.306 57.309 57.306 31.601 0 57.308-25.707 57.308-57.309s-25.707-57.306-57.308-57.306zm0 104.102c-25.801 0-46.796-20.991-46.796-46.796s20.995-46.793 46.796-46.793c25.803 0 46.795 20.992 46.795 46.796s-20.992 46.793-46.795 46.793zM61.688 72.641c-2.902 0-5.256 2.354-5.256 5.256v3.352c0 2.901 2.354 5.256 5.256 5.256s5.256-2.354 5.256-5.256v-3.352c0-2.906-2.354-5.256-5.256-5.256zM100.235 72.641c-2.901 0-5.256 2.354-5.256 5.256v3.352c0 2.901 2.354 5.256 5.256 5.256s5.257-2.354 5.257-5.256v-3.352c0-2.906-2.355-5.256-5.257-5.256z"/></svg>